<svg width="45" height="46" viewBox="0 0 45 46" fill="none" xmlns="http://www.w3.org/2000/svg">
<circle cx="22.5" cy="23" r="22.5" fill="url(#paint0_linear_4_278)"/>
<circle cx="22.4998" cy="22.9999" r="16.8013" fill="url(#paint1_radial_4_278)"/>
<path d="M43.9534 23.0003C43.9534 34.8487 34.3483 44.4537 22.4999 44.4537C10.6514 44.4537 1.04639 34.8487 1.04639 23.0003C1.04639 11.1518 10.6514 1.54677 22.4999 1.54677C34.3483 1.54677 43.9534 11.1518 43.9534 23.0003ZM4.68369 23.0003C4.68369 32.8399 12.6603 40.8164 22.4999 40.8164C32.3395 40.8164 40.3161 32.8399 40.3161 23.0003C40.3161 13.1606 32.3395 5.18407 22.4999 5.18407C12.6603 5.18407 4.68369 13.1606 4.68369 23.0003Z" fill="white"/>
<path d="M3.77635 20.3796C3.79956 20.382 3.82199 20.3615 3.84365 20.3179C3.86557 20.2729 3.88179 20.2197 3.89231 20.1585C3.90309 20.0958 3.90973 20.0434 3.91224 20.0013C3.91348 19.9574 3.90824 19.9101 3.8965 19.8592C3.87656 19.7644 3.80017 19.682 3.66731 19.6119L3.70549 19.5547C3.7849 19.5967 3.90337 19.636 4.0609 19.6725L3.9059 20.5743C3.89091 20.6615 3.87743 20.7537 3.86545 20.8509L3.79772 20.8463C3.79583 20.7657 3.79114 20.7105 3.78363 20.6809C3.77612 20.6513 3.75963 20.6327 3.73415 20.6251C3.64778 20.5961 3.48604 20.5612 3.24891 20.5205C2.86338 20.4542 2.62241 20.4175 2.52598 20.4104L2.47929 20.4071C2.45123 20.4054 2.42974 20.4159 2.41482 20.4386C2.39838 20.4609 2.3762 20.5075 2.34828 20.5783L2.28291 20.56C2.30407 20.4644 2.32371 20.3638 2.34186 20.2583C2.36 20.1527 2.37506 20.0513 2.38703 19.9542L2.45477 19.9587C2.45744 20.0348 2.4628 20.0861 2.47083 20.1127C2.47733 20.139 2.49409 20.1561 2.5211 20.1639C2.60926 20.1916 2.7719 20.2259 3.00903 20.2666C3.39302 20.3326 3.63247 20.369 3.72737 20.3759L3.77635 20.3796Z" fill="white"/>
<path d="M4.47281 18.0762C4.43922 18.1682 4.40832 18.2594 4.3801 18.3498C4.35234 18.4387 4.32611 18.5305 4.30141 18.6252L4.23487 18.6118C4.24282 18.5394 4.24377 18.4869 4.23775 18.4541C4.23024 18.4209 4.21379 18.3954 4.18842 18.3777L2.97293 17.5128L3.01108 17.3125L4.56191 17.2283C4.59033 17.2258 4.61492 17.2148 4.63566 17.1953C4.65537 17.1738 4.68231 17.1318 4.71646 17.0693L4.77884 17.0961C4.74525 17.188 4.71134 17.2888 4.6771 17.3985C4.64287 17.5081 4.6134 17.6103 4.5887 17.7051L4.52216 17.6916C4.53426 17.5799 4.53397 17.5132 4.52128 17.4913C4.51664 17.4801 4.51062 17.4733 4.50321 17.471C4.49432 17.4682 4.34824 17.4674 4.06497 17.4684L3.90814 17.9707L4.2663 18.2142C4.28556 18.2202 4.30575 18.2103 4.32685 18.1843C4.34796 18.1584 4.37582 18.1134 4.41044 18.0494L4.47281 18.0762ZM3.21031 17.4869L3.20753 17.4958C3.23986 17.5173 3.27867 17.544 3.32396 17.5761C3.36823 17.6061 3.43811 17.6532 3.5336 17.7171C3.6276 17.7806 3.72161 17.8441 3.81562 17.9076L3.95163 17.472L3.21031 17.4869Z" fill="white"/>
<path d="M6.23558 13.7821C6.30893 13.6559 6.34352 13.5378 6.33935 13.4276C6.33383 13.3167 6.2946 13.222 6.22164 13.1437L6.2774 13.1034C6.31712 13.1463 6.39806 13.214 6.5202 13.3065C6.48594 13.5075 6.42278 13.6871 6.3307 13.8455C6.20272 14.0656 6.04156 14.2053 5.84722 14.2646C5.65154 14.3232 5.44702 14.2905 5.23366 14.1664C5.02029 14.0423 4.8809 13.876 4.81548 13.6674C4.74871 13.4579 4.7797 13.2425 4.90846 13.0211C4.94436 12.9594 4.98991 12.8934 5.04512 12.8232C5.099 12.7521 5.13413 12.7025 5.15051 12.6743C5.1669 12.6462 5.18043 12.6136 5.19111 12.5767L5.2213 12.5943C5.31926 12.6513 5.41855 12.6982 5.51916 12.7352L5.51171 12.8036C5.30471 12.755 5.1341 12.8462 4.99988 13.077C4.92185 13.2112 4.90237 13.3543 4.94146 13.5063C4.96034 13.5819 5.0005 13.6564 5.06194 13.7299C5.12416 13.802 5.20023 13.8642 5.29014 13.9164C5.3787 13.9679 5.46468 14.0054 5.54806 14.0287C5.63145 14.0521 5.71532 14.0622 5.79968 14.0592C5.88404 14.0562 5.9649 14.0314 6.04227 13.9848C6.11964 13.9382 6.18408 13.8707 6.23558 13.7821Z" fill="white"/>
<path d="M6.65498 10.655C6.59875 10.7254 6.56278 10.7989 6.54705 10.8758C6.53131 10.9526 6.53146 11.0233 6.54748 11.0878C6.5635 11.1523 6.58982 11.2151 6.62645 11.2761C6.6866 11.3799 6.7579 11.4647 6.84035 11.5306C6.9228 11.5965 7.00318 11.6489 7.08149 11.6876C7.1586 11.7254 7.23764 11.7509 7.31861 11.7639C7.39959 11.777 7.47862 11.7676 7.5557 11.7358C7.63278 11.7041 7.69943 11.653 7.75565 11.5827C7.81284 11.5112 7.85015 11.4396 7.86758 11.3681C7.88501 11.2966 7.88814 11.2305 7.87697 11.1699C7.86556 11.1071 7.84493 11.0459 7.8151 10.9863C7.76245 10.8806 7.69406 10.7922 7.60992 10.7209C7.20011 10.3933 6.8818 10.3713 6.65498 10.655ZM8.01873 10.9851C8.04471 11.0894 8.0428 11.2011 8.01302 11.3204C7.98203 11.4387 7.92049 11.5555 7.82841 11.6707C7.66944 11.8695 7.49783 11.9748 7.31359 11.9865C7.12911 11.996 6.94412 11.9266 6.75861 11.7783C6.57189 11.629 6.45256 11.4501 6.40062 11.2417C6.37464 11.1374 6.37715 11.0262 6.40814 10.9078C6.43792 10.7886 6.49886 10.6713 6.59094 10.5561C6.74991 10.3573 6.92103 10.2526 7.1043 10.2422C7.28854 10.2305 7.47342 10.2988 7.65892 10.4471C7.84442 10.5954 7.96436 10.7747 8.01873 10.9851Z" fill="white"/>
<path d="M9.97175 8.90805C9.91519 8.84197 9.82124 8.73752 9.68989 8.5947C9.44926 8.33305 9.29714 8.17453 9.23355 8.11914L9.19688 8.08959C9.16823 8.06532 9.12009 8.07375 9.05246 8.11486C9.03559 8.12404 9.00744 8.14044 8.968 8.16406L8.92743 8.10963C9.00257 8.04686 9.07498 7.98342 9.14468 7.91932C9.21552 7.85417 9.28535 7.78678 9.35418 7.71716L9.40503 7.76213C9.3607 7.82399 9.33359 7.8679 9.32372 7.89386C9.31279 7.91867 9.31564 7.9424 9.33227 7.96507C9.38284 8.04299 9.48957 8.1705 9.65244 8.3476C9.90148 8.61838 10.0973 8.82212 10.2399 8.95882L10.3049 9.01922L10.182 9.16074L8.62558 8.86492L8.61701 8.8728C8.70491 8.97755 8.80193 9.08762 8.90806 9.20302C9.10666 9.41896 9.24678 9.56215 9.32843 9.63258L9.36667 9.66384C9.39531 9.68811 9.44398 9.68026 9.51267 9.64029C9.52848 9.62996 9.55611 9.61299 9.59554 9.58937L9.63611 9.6438C9.56098 9.70658 9.48399 9.77421 9.40516 9.84672C9.32632 9.91922 9.25249 9.99029 9.18366 10.0599L9.13281 10.0149C9.18286 9.94783 9.21567 9.89867 9.23126 9.86746C9.24685 9.83625 9.24685 9.80989 9.23127 9.78836C9.17947 9.71369 9.07213 9.5878 8.90926 9.4107C8.64446 9.12278 8.47605 8.94655 8.40405 8.88202L8.3691 8.85089C8.3479 8.83243 8.32448 8.8276 8.29884 8.83642C8.27216 8.84409 8.22614 8.86743 8.16079 8.90645L8.12022 8.85202C8.19535 8.78924 8.28205 8.71267 8.38031 8.6223L9.96318 8.91594L9.97175 8.90805Z" fill="white"/>
<path d="M11.4518 6.6434C11.3617 6.56795 11.2818 6.52892 11.212 6.52631C11.1435 6.52281 11.0728 6.54626 11.0001 6.59666C10.9274 6.64707 10.8843 6.70339 10.8708 6.76564C10.8564 6.82662 10.8669 6.88262 10.9022 6.93365C10.9597 7.01658 11.0506 7.05649 11.175 7.05338L11.614 7.04093C11.8068 7.03572 11.9443 7.09244 12.0266 7.21109C12.0929 7.30678 12.1125 7.41687 12.0855 7.54137C12.0589 7.66371 11.9728 7.77528 11.8274 7.87609C11.6819 7.97689 11.5391 8.04191 11.3988 8.07115C11.3467 7.95238 11.2919 7.85153 11.2345 7.76861L11.2702 7.70983C11.3619 7.80118 11.4418 7.85249 11.51 7.86374C11.5783 7.87499 11.6551 7.851 11.7406 7.79175C11.8274 7.73162 11.8785 7.66503 11.894 7.59198C11.9107 7.51805 11.8992 7.45238 11.8594 7.39496C11.8054 7.31714 11.7184 7.28017 11.5984 7.28407L11.1529 7.29535C10.9825 7.30015 10.8557 7.24259 10.7726 7.12266C10.708 7.02953 10.6887 6.92395 10.7145 6.80593C10.7395 6.68663 10.8107 6.58631 10.9281 6.50496C10.9663 6.47843 11.012 6.45435 11.065 6.43272C11.1184 6.40894 11.1572 6.38864 11.1814 6.37184C11.2057 6.35504 11.2311 6.33176 11.2577 6.302L11.2776 6.33071C11.3421 6.42384 11.4121 6.50848 11.4876 6.58462L11.4518 6.6434Z" fill="white"/>
<path d="M13.4301 5.12429C13.3498 5.16495 13.2865 5.21698 13.2403 5.28038C13.1941 5.34378 13.1649 5.40814 13.1527 5.47345C13.1406 5.53877 13.1385 5.60681 13.1464 5.67758C13.1581 5.79693 13.1878 5.90369 13.2355 5.99787C13.2832 6.09205 13.3346 6.17302 13.3898 6.24078C13.4442 6.30716 13.5056 6.36309 13.5739 6.40857C13.6421 6.45406 13.7179 6.47833 13.8012 6.48139C13.8845 6.48445 13.9664 6.46565 14.0467 6.42499C14.1284 6.38363 14.192 6.33403 14.2376 6.27619C14.2831 6.21835 14.3134 6.15954 14.3283 6.09976C14.344 6.0379 14.3506 5.97365 14.3482 5.90702C14.3442 5.78902 14.3186 5.68015 14.2716 5.58042C14.0347 5.11229 13.7542 4.96025 13.4301 5.12429ZM14.534 5.99045C14.5144 6.09607 14.4663 6.19697 14.3897 6.29314C14.3124 6.38794 14.208 6.46863 14.0764 6.53523C13.8493 6.6502 13.6494 6.67478 13.477 6.60898C13.3052 6.5411 13.1656 6.40121 13.0584 6.18931C12.9504 5.97602 12.916 5.76376 12.9553 5.55252C12.9749 5.44691 13.0233 5.3467 13.1006 5.25191C13.1772 5.15573 13.2813 5.07434 13.4129 5.00775C13.64 4.89278 13.8391 4.86855 14.0102 4.93504C14.1827 5.00084 14.3226 5.13969 14.4298 5.35159C14.5371 5.56349 14.5718 5.77645 14.534 5.99045Z" fill="white"/>
<path d="M16.367 5.33373C16.376 5.35525 16.4048 5.36504 16.4534 5.36312C16.5035 5.36069 16.5578 5.34938 16.6166 5.3292C16.6767 5.30852 16.7259 5.28916 16.764 5.27113C16.8031 5.25113 16.8421 5.22377 16.8811 5.18904C16.9546 5.12602 16.9902 5.01941 16.9878 4.86921L17.0564 4.8752C17.0577 4.96503 17.0802 5.08779 17.1238 5.24349L16.2585 5.54092C16.1748 5.56968 16.0875 5.60215 15.9965 5.63834L15.9679 5.57675C16.0378 5.53634 16.0839 5.50572 16.1062 5.4849C16.1286 5.46407 16.137 5.44068 16.1314 5.41471C16.1153 5.32503 16.0682 5.16641 15.99 4.93887C15.8628 4.56894 15.7792 4.33997 15.7391 4.25198L15.7196 4.20946C15.7076 4.18404 15.688 4.17023 15.661 4.16803C15.6335 4.16436 15.582 4.16729 15.5065 4.17683L15.4911 4.1107C15.5851 4.08332 15.6828 4.05222 15.7841 4.01741C15.8854 3.98259 15.9815 3.94709 16.0725 3.9109L16.101 3.97249C16.0356 4.01139 15.9932 4.04074 15.9737 4.06056C15.9538 4.07891 15.9468 4.1018 15.953 4.12923C15.971 4.21988 16.0191 4.37898 16.0973 4.60652C16.224 4.97499 16.3071 5.20248 16.3467 5.289L16.367 5.33373Z" fill="white"/>
<path d="M18.7218 4.83771C18.625 4.85244 18.5302 4.86915 18.4374 4.88783C18.3461 4.90621 18.253 4.92733 18.158 4.95119L18.1378 4.88637C18.2051 4.85859 18.2516 4.83418 18.2775 4.81314C18.303 4.79058 18.3174 4.76392 18.3208 4.73317L18.4952 3.2516L18.6892 3.1888L19.5082 4.50841C19.5241 4.53213 19.5456 4.54839 19.5727 4.55719C19.601 4.56416 19.6508 4.5676 19.722 4.56751L19.7285 4.63508C19.6317 4.64982 19.527 4.66851 19.4144 4.69118C19.3018 4.71385 19.198 4.73711 19.103 4.76098L19.0829 4.69616C19.1866 4.6531 19.245 4.62076 19.2581 4.59913C19.2657 4.58969 19.2687 4.58116 19.2672 4.57355C19.2653 4.56442 19.1959 4.43588 19.0589 4.18794L18.5431 4.29178L18.5016 4.7229C18.5056 4.74269 18.524 4.7556 18.5569 4.76165C18.5898 4.7677 18.6426 4.77052 18.7153 4.77013L18.7218 4.83771ZM18.632 3.44733L18.6228 3.44917C18.6195 3.48784 18.6147 3.53473 18.6084 3.58984C18.6033 3.64312 18.5956 3.727 18.5854 3.84148C18.5749 3.95443 18.5644 4.06739 18.5539 4.18035L19.0013 4.09029L18.632 3.44733Z" fill="white"/>
<path d="M21.7728 4.33796C21.9185 4.32979 22.0362 4.29365 22.1259 4.22954C22.2155 4.16388 22.2729 4.07904 22.2982 3.97501L22.3625 3.99938C22.3486 4.05614 22.3366 4.16098 22.3265 4.3139C22.1399 4.39589 21.9551 4.44201 21.7722 4.45227C21.5181 4.46652 21.3127 4.40885 21.1562 4.27926C20.9996 4.14812 20.9144 3.95933 20.9006 3.7129C20.8867 3.46648 20.9489 3.25854 21.0871 3.0891C21.2252 2.91811 21.4221 2.82544 21.6779 2.8111C21.7492 2.8071 21.8293 2.80882 21.9184 2.81627C22.0073 2.82216 22.0681 2.8242 22.1006 2.82237C22.1332 2.82055 22.1678 2.81394 22.2044 2.80256L22.2064 2.83743C22.2128 2.95057 22.2282 3.05931 22.2527 3.16366L22.1915 3.19508C22.1181 2.99552 21.9481 2.90322 21.6815 2.91817C21.5266 2.92686 21.3964 2.98936 21.2909 3.10565C21.2382 3.16303 21.1981 3.23757 21.1706 3.32929C21.1446 3.42092 21.1345 3.51866 21.1404 3.6225C21.1461 3.72479 21.1622 3.81717 21.1885 3.89964C21.2149 3.98212 21.2526 4.05774 21.3016 4.12652C21.3505 4.19529 21.4157 4.24916 21.4972 4.28812C21.5787 4.32708 21.6705 4.3437 21.7728 4.33796Z" fill="white"/>
<path d="M24.1661 3.01117C24.1477 3.10173 24.1305 3.26705 24.1146 3.50713C24.0888 3.8959 24.0774 4.13784 24.0804 4.23293L24.0818 4.28203C24.0831 4.31012 24.0965 4.33123 24.122 4.34537C24.1476 4.35795 24.1978 4.37451 24.2727 4.39503L24.2613 4.46194C24.164 4.45083 24.058 4.44147 23.9434 4.43387C23.8288 4.42627 23.7226 4.42156 23.6247 4.41973L23.6222 4.35189C23.7022 4.34164 23.7565 4.33125 23.7852 4.3207C23.8139 4.31016 23.8307 4.29183 23.8356 4.2657C23.854 4.17514 23.8712 4.00982 23.8871 3.76974C23.9129 3.38097 23.9243 3.13826 23.9214 3.04161L23.9198 2.99484C23.9186 2.96675 23.9059 2.94647 23.8819 2.93398C23.8579 2.91995 23.8093 2.90272 23.7359 2.8823L23.7474 2.81539C23.8447 2.82651 23.9467 2.83561 24.0536 2.84269C24.1605 2.84978 24.2629 2.85423 24.3607 2.85606L24.3632 2.9239C24.2879 2.93446 24.2374 2.94511 24.2118 2.95586C24.1863 2.96506 24.1711 2.98349 24.1661 3.01117Z" fill="white"/>
<path d="M26.6916 3.26105C26.6032 3.24373 26.5213 3.24587 26.4459 3.26747C26.3705 3.28908 26.3079 3.32189 26.2582 3.36592C26.2084 3.40995 26.1649 3.46233 26.1277 3.52306C26.0636 3.62437 26.0213 3.72683 26.001 3.83041C25.9807 3.934 25.9715 4.02947 25.9734 4.11684C25.9755 4.20268 25.9895 4.28451 26.0154 4.36235C26.0413 4.44018 26.0861 4.50592 26.15 4.55956C26.2138 4.6132 26.2899 4.64867 26.3783 4.66599C26.4681 4.6836 26.5488 4.6836 26.6203 4.66597C26.6918 4.64834 26.7518 4.62056 26.8003 4.58262C26.8507 4.54346 26.8954 4.49686 26.9345 4.44283C27.0039 4.34727 27.0506 4.24571 27.0749 4.13816C27.1758 3.62328 27.048 3.33091 26.6916 3.26105ZM27.0297 4.62283C26.9493 4.69408 26.8494 4.74408 26.7298 4.77286C26.6106 4.80011 26.4786 4.79955 26.3339 4.77119C26.0841 4.72223 25.9114 4.61878 25.8158 4.46084C25.722 4.30168 25.698 4.10557 25.7437 3.8725C25.7896 3.63791 25.893 3.44938 26.0538 3.30689C26.1342 3.23565 26.234 3.1864 26.3533 3.15915C26.4728 3.13038 26.6049 3.13017 26.7496 3.15853C26.9995 3.2075 27.1714 3.3108 27.2655 3.46843C27.3611 3.62637 27.386 3.82187 27.3403 4.05494C27.2947 4.288 27.1911 4.4773 27.0297 4.62283Z" fill="white"/>
<path d="M29.7744 5.39345C29.8068 5.31274 29.856 5.18112 29.9218 4.99861C30.0425 4.66424 30.1127 4.45605 30.1324 4.37404L30.1416 4.32787C30.1499 4.29125 30.1201 4.25246 30.0524 4.21151C30.0365 4.20081 30.0089 4.18344 29.9697 4.1594L29.9992 4.09825C30.0896 4.13583 30.1794 4.17069 30.2684 4.20283C30.359 4.2355 30.451 4.26624 30.5446 4.29506L30.5282 4.36094C30.4529 4.35025 30.4014 4.34653 30.3738 4.34978C30.3468 4.35157 30.327 4.36508 30.3146 4.39031C30.269 4.47119 30.2053 4.62479 30.1236 4.8511C29.9987 5.19715 29.9087 5.465 29.8534 5.65466L29.83 5.74025L29.6476 5.69674L29.19 4.18L29.179 4.17605C29.1268 4.30243 29.0741 4.43936 29.0209 4.58683C28.9213 4.8628 28.8591 5.05326 28.8345 5.15822L28.8244 5.20659C28.8162 5.24321 28.8457 5.28273 28.9129 5.32513C28.9293 5.33438 28.9572 5.35102 28.9963 5.37506L28.9668 5.43621C28.8764 5.39863 28.7809 5.36166 28.6801 5.32531C28.5794 5.28895 28.4822 5.25636 28.3886 5.22755L28.405 5.16166C28.4876 5.17498 28.5464 5.18134 28.5813 5.18072C28.6162 5.18011 28.6395 5.16792 28.6514 5.14415C28.6937 5.06368 28.7556 4.91028 28.8373 4.68396C28.9701 4.31601 29.0484 4.08519 29.0723 3.9915L29.0838 3.94612C29.0903 3.91878 29.0838 3.89579 29.0641 3.87713C29.0449 3.85702 29.003 3.82702 28.9381 3.78713L28.9676 3.72598C29.058 3.76356 29.166 3.805 29.2916 3.85032L29.7635 5.3895L29.7744 5.39345Z" fill="white"/>
<path d="M33.2695 7.44084C33.3919 7.52026 33.5082 7.56057 33.6185 7.56178C33.7295 7.56168 33.826 7.52711 33.9078 7.45806L33.9453 7.51571C33.9006 7.5533 33.829 7.63084 33.7306 7.74832C33.5315 7.7043 33.3552 7.63245 33.2015 7.53275C32.988 7.3942 32.8563 7.22641 32.8064 7.02941C32.7575 6.8311 32.8001 6.62842 32.9345 6.42136C33.0688 6.21431 33.2418 6.0832 33.4533 6.02803C33.6658 5.97155 33.8794 6.01302 34.0943 6.15242C34.1542 6.19128 34.2179 6.24 34.2853 6.29858C34.3537 6.35585 34.4015 6.39336 34.4288 6.4111C34.4562 6.42884 34.488 6.44394 34.5243 6.45641L34.5053 6.48571C34.4436 6.58077 34.3919 6.67765 34.3501 6.77634L34.2821 6.76556C34.3407 6.56117 34.258 6.38632 34.034 6.24101C33.9038 6.15652 33.7618 6.13009 33.6081 6.16172C33.5316 6.17688 33.4552 6.21336 33.3789 6.27115C33.3038 6.32978 33.238 6.40272 33.1814 6.48997C33.1256 6.57592 33.0841 6.65997 33.0567 6.74211C33.0293 6.82426 33.015 6.90754 33.0139 6.99194C33.0128 7.07635 33.0337 7.15832 33.0764 7.23787C33.1192 7.31742 33.1835 7.38508 33.2695 7.44084Z" fill="white"/>
<path d="M36.3723 8.01217C36.3048 7.95258 36.233 7.91306 36.157 7.8936C36.081 7.87413 36.0105 7.87083 35.9453 7.88369C35.8801 7.89654 35.8161 7.91977 35.7533 7.95338C35.6468 8.0084 35.5586 8.07548 35.4887 8.15461C35.4188 8.23375 35.3626 8.31148 35.3201 8.38781C35.2786 8.46298 35.2493 8.54069 35.2323 8.62093C35.2153 8.70117 35.2208 8.78056 35.2488 8.8591C35.2768 8.93764 35.3245 9.0067 35.392 9.06628C35.4607 9.1269 35.5303 9.16765 35.6009 9.18855C35.6715 9.20945 35.7373 9.2158 35.7984 9.2076C35.8617 9.19926 35.9238 9.18164 35.9848 9.15475C36.0929 9.10732 36.1846 9.04333 36.2599 8.96276C36.6071 8.56942 36.6446 8.25256 36.3723 8.01217ZM35.976 9.3582C35.8707 9.37906 35.7591 9.37171 35.6414 9.33614C35.5248 9.29942 35.4112 9.23226 35.3006 9.13466C35.1098 8.96619 35.013 8.78965 35.0103 8.60506C35.0098 8.42033 35.0881 8.23894 35.2453 8.06089C35.4035 7.88168 35.588 7.77121 35.7988 7.7295C35.9041 7.70864 36.0151 7.71657 36.1318 7.7533C36.2495 7.78886 36.3636 7.85544 36.4742 7.95303C36.665 8.12151 36.7612 8.29753 36.7627 8.4811C36.7654 8.66569 36.6882 8.84701 36.531 9.02506C36.3738 9.20311 36.1889 9.31416 35.976 9.3582Z" fill="white"/>
<path d="M37.2648 10.8183C37.2481 10.8347 37.2497 10.865 37.2695 10.9095C37.2902 10.9551 37.3209 11.0014 37.3613 11.0485C37.4028 11.0967 37.439 11.1353 37.4699 11.164C37.5029 11.1929 37.5428 11.219 37.5894 11.2424C37.6752 11.2874 37.7874 11.281 37.9261 11.2232L37.9458 11.2891C37.8629 11.3236 37.7572 11.3899 37.6287 11.488L37.0321 10.7941C36.9745 10.727 36.912 10.6579 36.8447 10.5868L36.8914 10.5375C36.9547 10.5874 37.0002 10.6189 37.0279 10.632C37.0555 10.6451 37.0803 10.6442 37.1024 10.6294C37.1798 10.5813 37.3097 10.4788 37.4921 10.3219C37.7888 10.0669 37.9705 9.90454 38.0374 9.83474L38.0697 9.80085C38.0889 9.78028 38.0945 9.75704 38.0865 9.73112C38.0798 9.70419 38.058 9.65742 38.0212 9.5908L38.0769 9.55208C38.1372 9.62927 38.2022 9.70848 38.272 9.7897C38.3418 9.87092 38.4104 9.9471 38.4777 10.0182L38.431 10.0675C38.3707 10.0212 38.3277 9.99259 38.3021 9.98185C38.2777 9.9701 38.2538 9.97216 38.2306 9.98802C38.1531 10.0383 38.0231 10.1419 37.8406 10.2987C37.5452 10.5527 37.3646 10.7141 37.2988 10.7829L37.2648 10.8183Z" fill="white"/>
<path d="M38.701 12.6796C38.6825 12.6938 38.6804 12.7242 38.6946 12.7707C38.7096 12.8184 38.7344 12.8682 38.7688 12.9198C38.8041 12.9728 38.8353 13.0154 38.8624 13.0477C38.8917 13.0805 38.9281 13.1112 38.9715 13.1401C39.0512 13.1952 39.1633 13.2026 39.308 13.1621L39.3196 13.2299C39.2331 13.254 39.12 13.307 38.9805 13.3887L38.4731 12.6273C38.424 12.5536 38.3704 12.4774 38.3123 12.3986L38.3646 12.3554C38.4215 12.4126 38.4628 12.4494 38.4886 12.4658C38.5144 12.4822 38.5392 12.4843 38.5629 12.4723C38.6455 12.434 38.787 12.3481 38.9872 12.2147C39.3127 11.9977 39.5129 11.8587 39.5879 11.7976L39.624 11.7679C39.6456 11.7498 39.654 11.7274 39.6492 11.7007C39.6458 11.6732 39.6299 11.6241 39.6015 11.5535L39.6615 11.5219C39.7119 11.6058 39.7668 11.6924 39.8262 11.7815C39.8856 11.8706 39.9443 11.9546 40.0024 12.0334L39.9501 12.0766C39.8959 12.0232 39.8567 11.9897 39.8326 11.9759C39.8098 11.9612 39.7859 11.9604 39.7609 11.9733C39.6778 12.0137 39.5361 12.1007 39.3359 12.2341C39.0117 12.4502 38.8128 12.5883 38.7391 12.6486L38.701 12.6796Z" fill="white"/>
<path d="M40.4298 14.4171C40.167 14.5475 40.0029 14.6358 39.9375 14.6821L39.9009 14.7081C39.8626 14.7427 39.8752 14.8239 39.9387 14.9519C39.9704 15.0158 39.9977 15.0655 40.0205 15.101C40.0454 15.1372 40.0775 15.1724 40.117 15.2065C40.189 15.2713 40.2993 15.2928 40.4479 15.2711L40.4509 15.3398C40.362 15.3527 40.2431 15.3909 40.0944 15.4543L39.6805 14.6199C39.6411 14.5406 39.5977 14.4582 39.55 14.3727L39.6074 14.3364C39.6565 14.4005 39.6928 14.4422 39.7164 14.4617C39.7399 14.4812 39.7642 14.4865 39.7892 14.4776C39.8761 14.4501 40.0273 14.3829 40.2428 14.276C40.5932 14.1021 40.8095 13.9896 40.8916 13.9385L40.9312 13.9137C40.9549 13.8985 40.966 13.8773 40.9647 13.8502C40.9648 13.8225 40.9553 13.7718 40.936 13.6981L40.9996 13.6744C41.0389 13.764 41.1186 13.9299 41.2386 14.1718C41.3587 14.4138 41.4511 14.5897 41.516 14.6996L41.4848 14.7151C41.3749 14.7696 41.2768 14.8287 41.1905 14.8923L41.1376 14.8484C41.2337 14.7556 41.2846 14.6767 41.2904 14.6114C41.2961 14.5462 41.2645 14.444 41.1955 14.305C41.1645 14.2424 41.1386 14.1972 41.1178 14.1694C41.0971 14.1415 41.076 14.1304 41.0544 14.1358C40.9571 14.1668 40.7767 14.2467 40.5132 14.3757C40.6008 14.5523 40.6574 14.6559 40.683 14.6866C40.7093 14.7186 40.736 14.7339 40.7631 14.7326C40.7908 14.7327 40.8443 14.7218 40.9235 14.6998L40.9514 14.777C40.8652 14.8059 40.7853 14.8386 40.7116 14.8751C40.6379 14.9117 40.5628 14.9559 40.4863 15.0077L40.4396 14.9399C40.505 14.8901 40.5461 14.8541 40.5628 14.832C40.5802 14.8112 40.5842 14.7807 40.5746 14.7404C40.5657 14.7015 40.5174 14.5937 40.4298 14.4171Z" fill="white"/>
<path d="M40.9771 17.4701C41.0304 17.6323 41.1001 17.7548 41.1862 17.8376L41.5394 17.7042C41.565 17.6925 41.5791 17.6731 41.5816 17.6462C41.5857 17.6187 41.5834 17.5671 41.5749 17.4915L41.6412 17.477C41.6673 17.5714 41.6937 17.6591 41.7204 17.7402C41.7476 17.8228 41.7787 17.9098 41.8137 18.0012L41.7517 18.029C41.74 18.0083 41.7295 17.9913 41.7203 17.978C41.7115 17.9662 41.7041 17.9564 41.6983 17.9485C41.6939 17.9401 41.6873 17.935 41.6785 17.933C41.6696 17.931 41.6642 17.9295 41.6623 17.9285C41.6539 17.928 41.6387 17.9313 41.6166 17.9386L41.2134 18.0541C41.0379 17.8537 40.9223 17.6687 40.8665 17.4991C40.7869 17.2573 40.7895 17.044 40.8741 16.8593C40.9602 16.674 41.1264 16.5409 41.3727 16.4599C41.5172 16.4123 41.6583 16.3994 41.7962 16.421C41.936 16.4436 42.0634 16.5055 42.1784 16.6066C42.2953 16.7086 42.3819 16.8452 42.4382 17.0162C42.4615 17.087 42.4815 17.1678 42.4984 17.2587C42.5167 17.3491 42.5312 17.4105 42.5418 17.4429C42.5525 17.4754 42.5683 17.5086 42.5893 17.5425L42.5561 17.5534C42.4485 17.5889 42.3475 17.6319 42.253 17.6826L42.2061 17.6294C42.3784 17.5024 42.4209 17.3063 42.3335 17.0408C42.2802 16.8787 42.179 16.76 42.0301 16.6848C41.8816 16.6111 41.7005 16.6094 41.4867 16.6797C41.3068 16.7389 41.1643 16.8324 41.0593 16.9601C41.0055 17.0252 40.9704 17.1021 40.9538 17.1909C40.9373 17.2797 40.945 17.3727 40.9771 17.4701Z" fill="white"/>
<path d="M42.2676 19.7517C41.9787 19.8028 41.7964 19.8414 41.7206 19.8675L41.6782 19.8821C41.6318 19.9045 41.621 19.986 41.6459 20.1266C41.6583 20.1969 41.6705 20.2523 41.6824 20.2928C41.6961 20.3345 41.7171 20.3773 41.7453 20.4211C41.7962 20.5036 41.896 20.5553 42.0447 20.5762L42.0282 20.643C41.9393 20.6304 41.8145 20.6335 41.6539 20.6525L41.4915 19.7354C41.476 19.6483 41.4575 19.557 41.4359 19.4615L41.5011 19.4429C41.5302 19.5181 41.5533 19.5684 41.5704 19.5938C41.5875 19.6191 41.6093 19.631 41.6359 19.6295C41.7269 19.6275 41.891 19.6056 42.1279 19.5636C42.5131 19.4954 42.7522 19.4483 42.8454 19.4223L42.8904 19.4096C42.9174 19.4017 42.934 19.3845 42.9404 19.3582C42.9483 19.3316 42.9534 19.2802 42.9557 19.2042L43.0234 19.1993C43.0359 19.2964 43.0657 19.4779 43.1128 19.7439C43.1599 20.0098 43.1991 20.2046 43.2305 20.3284L43.1961 20.3345C43.0753 20.3558 42.9646 20.3849 42.8639 20.4217L42.8254 20.3646C42.9437 20.3027 43.0148 20.2412 43.0387 20.1802C43.0626 20.1193 43.061 20.0123 43.0339 19.8595C43.0217 19.7907 43.0096 19.7401 42.9975 19.7075C42.9855 19.675 42.9683 19.6583 42.9461 19.6575C42.8441 19.6598 42.6485 19.6858 42.3593 19.7354C42.3937 19.9295 42.4188 20.0449 42.4348 20.0815C42.451 20.1196 42.4723 20.1418 42.4986 20.1482C42.5252 20.1561 42.5797 20.1607 42.6618 20.1619L42.6669 20.2437C42.5761 20.2472 42.4901 20.2561 42.4091 20.2705C42.3281 20.2848 42.2436 20.3061 42.1556 20.3343L42.1299 20.2561C42.2067 20.2267 42.2562 20.2038 42.2785 20.1872C42.3011 20.1722 42.3134 20.144 42.3156 20.1026C42.318 20.0628 42.302 19.9458 42.2676 19.7517Z" fill="white"/>
<path d="M14.1883 40.2347C14.3016 40.2968 14.5127 40.3985 14.8215 40.5396C15.1303 40.6808 15.3453 40.7738 15.4665 40.8189L15.4518 40.851C15.4002 40.964 15.3607 41.073 15.3334 41.1781L15.2638 41.1773C15.2802 41.0431 15.2698 40.9485 15.2327 40.8935C15.1957 40.8385 15.1056 40.7784 14.9626 40.713C14.9197 40.6934 14.8873 40.7019 14.8654 40.7386C14.8154 40.8177 14.7398 40.9681 14.6385 41.1897C14.4745 41.5486 14.3768 41.7736 14.3455 41.8647L14.3292 41.9117C14.3203 41.9388 14.3254 41.9636 14.3445 41.9861C14.3642 42.0072 14.4059 42.041 14.4694 42.0873L14.4345 42.1465C14.3464 42.1011 14.2494 42.0542 14.1436 42.0058C14.0378 41.9574 13.9389 41.9148 13.8469 41.878L13.8689 41.8128C13.9483 41.8318 14.0035 41.8415 14.0345 41.8418C14.0655 41.8422 14.0879 41.8308 14.1019 41.8078C14.1519 41.7287 14.2275 41.5783 14.3288 41.3567C14.4928 40.9978 14.5908 40.7721 14.6227 40.6795L14.6381 40.6347C14.6514 40.5941 14.6381 40.5647 14.598 40.5464C14.4551 40.481 14.3506 40.4523 14.2848 40.4603C14.2189 40.4682 14.1406 40.5223 14.0499 40.6225L14.0037 40.5703C14.0653 40.481 14.1219 40.3798 14.1736 40.2668L14.1883 40.2347Z" fill="white"/>
<path d="M16.3634 42.8779C16.2701 42.8446 16.1775 42.8139 16.0858 42.786C15.9956 42.7585 15.9024 42.7326 15.8063 42.7082L15.8194 42.6408C15.8927 42.6483 15.946 42.6489 15.9791 42.6426C16.0127 42.6347 16.0384 42.6179 16.0561 42.5921L16.9234 41.355L17.1265 41.3922L17.2227 42.9622C17.2255 42.9909 17.2368 43.0158 17.2568 43.0366C17.2787 43.0564 17.3214 43.0834 17.3849 43.1176L17.3582 43.1809C17.2649 43.1476 17.1625 43.1139 17.0513 43.08C16.94 43.0461 16.8363 43.017 16.7402 42.9927L16.7533 42.9252C16.8665 42.9367 16.9341 42.9359 16.9562 42.9229C16.9675 42.9181 16.9743 42.912 16.9766 42.9044C16.9793 42.8954 16.9792 42.7475 16.9762 42.4606L16.4664 42.3053L16.2222 42.6698C16.2163 42.6893 16.2265 42.7097 16.2529 42.7309C16.2793 42.7521 16.3251 42.78 16.3901 42.8146L16.3634 42.8779ZM16.9513 41.5952L16.9423 41.5925C16.9208 41.6254 16.894 41.6649 16.8618 41.7109C16.8317 41.756 16.7846 41.8271 16.7205 41.9242C16.6568 42.0199 16.5932 42.1155 16.5295 42.2112L16.9717 42.3459L16.9513 41.5952Z" fill="white"/>
<path d="M19.9076 43.3489C19.9241 43.2624 19.9473 43.122 19.9772 42.9278C20.032 42.572 20.0612 42.3514 20.0648 42.2661L20.065 42.2184C20.066 42.1804 20.0289 42.1476 19.9536 42.1201C19.9357 42.1126 19.9049 42.1007 19.8613 42.0844L19.8787 42.0179C19.9759 42.0377 20.0719 42.0548 20.1666 42.0694C20.263 42.0842 20.3604 42.0969 20.459 42.1073L20.4556 42.1759C20.3787 42.18 20.3268 42.1863 20.3 42.1949C20.2735 42.202 20.2565 42.2192 20.2491 42.2467C20.2194 42.336 20.1861 42.5011 20.149 42.7419C20.0923 43.1101 20.055 43.3939 20.037 43.5931L20.0304 43.6828L19.8407 43.675L19.0904 42.2568L19.0787 42.255C19.0515 42.3908 19.0258 42.5372 19.0016 42.6941C18.9564 42.9878 18.9318 43.1891 18.9277 43.2983L18.9271 43.3483C18.9261 43.3863 18.963 43.4198 19.0381 43.4489C19.0563 43.4548 19.0872 43.466 19.1308 43.4822L19.1134 43.5487C19.0162 43.529 18.914 43.5109 18.8068 43.4944C18.6996 43.4779 18.5967 43.4644 18.4981 43.454L18.5015 43.3854C18.5863 43.3825 18.6459 43.3774 18.6804 43.37C18.715 43.3625 18.7358 43.3459 18.743 43.3199C18.7693 43.2317 18.801 43.0672 18.8381 42.8264C18.8984 42.4348 18.9313 42.1902 18.9368 42.0924L18.9393 42.0451C18.9405 42.0166 18.9295 41.9951 18.9063 41.9804C18.8834 41.9641 18.8358 41.9425 18.7636 41.9155L18.781 41.8489C18.8782 41.8687 18.9936 41.8888 19.1272 41.9094L19.896 43.3471L19.9076 43.3489Z" fill="white"/>
<path d="M21.9479 43.8227C21.8489 43.817 21.7515 43.8137 21.6556 43.8128C21.5612 43.8119 21.4645 43.8133 21.3655 43.817L21.3591 43.7485C21.4315 43.7351 21.4828 43.7207 21.5128 43.7053C21.5428 43.6883 21.5627 43.6649 21.5724 43.6351L22.0558 42.2037L22.2612 42.1822L22.7961 43.6613C22.8068 43.6881 22.8247 43.7088 22.8497 43.7231C22.8763 43.736 22.9249 43.7498 22.9955 43.7647L22.9877 43.833C22.8888 43.8273 22.7811 43.8239 22.6648 43.8227C22.5485 43.8216 22.4407 43.8229 22.3417 43.8266L22.3353 43.7582C22.4471 43.7373 22.5117 43.7175 22.5292 43.6988C22.5387 43.691 22.5435 43.6832 22.5436 43.6753C22.5437 43.6659 22.5019 43.524 22.4181 43.2496L21.8852 43.2444L21.7537 43.6628C21.7535 43.6833 21.7691 43.6999 21.8004 43.7128C21.8317 43.7257 21.8835 43.7396 21.9556 43.7544L21.9479 43.8227ZM22.1503 42.4263L22.1409 42.4262C22.1295 42.4639 22.1149 42.5093 22.0971 42.5626C22.0808 42.6143 22.0557 42.6958 22.0216 42.8071C21.9875 42.9168 21.9534 43.0265 21.9193 43.1362L22.3814 43.1408L22.1503 42.4263Z" fill="white"/>
<path d="M25.0385 42.0119C25.1373 42.0034 25.2342 41.9929 25.3293 41.9801C25.4259 41.9672 25.523 41.9518 25.6205 41.934L25.6366 42.0009C25.5623 42.0267 25.5136 42.0475 25.4903 42.0633C25.4668 42.0775 25.4562 42.0988 25.4584 42.127C25.4731 42.2963 25.503 42.585 25.5481 42.9929C25.5678 43.1758 25.5344 43.3294 25.448 43.4536C25.3615 43.5777 25.21 43.6543 24.9934 43.6833C24.889 43.6973 24.799 43.7006 24.7235 43.6933C24.6497 43.6873 24.582 43.667 24.5203 43.6324C24.3986 43.5647 24.3209 43.4165 24.2871 43.1878C24.2285 42.7976 24.1834 42.5022 24.1519 42.3019C24.1481 42.2738 24.1323 42.2561 24.1043 42.2488C24.0777 42.2396 24.0252 42.2324 23.9468 42.227L23.9447 42.1583C24.0435 42.1498 24.1466 42.1384 24.2542 42.124C24.3617 42.1096 24.4642 42.0935 24.5617 42.0757L24.5778 42.1426C24.5051 42.1681 24.4571 42.1888 24.4339 42.2046C24.4104 42.2189 24.399 42.2402 24.3996 42.2687C24.3991 42.3719 24.413 42.5286 24.4411 42.739C24.4691 42.9478 24.4853 43.0693 24.4899 43.1036C24.4961 43.1377 24.5041 43.1794 24.5138 43.2289C24.5234 43.2767 24.5339 43.3134 24.5452 43.3389C24.5565 43.3643 24.5707 43.3933 24.5878 43.4259C24.6062 43.4568 24.6267 43.4794 24.6492 43.4938C24.6718 43.5083 24.699 43.5221 24.7309 43.5353C24.7865 43.5595 24.8665 43.5647 24.9709 43.5507C25.0768 43.5365 25.1612 43.5094 25.2241 43.4693C25.2867 43.4276 25.3309 43.3725 25.3566 43.304C25.3821 43.234 25.396 43.16 25.3982 43.0819C25.4005 43.0039 25.3928 42.8995 25.3753 42.7686C25.338 42.4897 25.308 42.301 25.2853 42.2025L25.2737 42.1517C25.2641 42.115 25.2192 42.094 25.1392 42.0888C25.1199 42.0867 25.087 42.0839 25.0406 42.0806L25.0385 42.0119Z" fill="white"/>
<path d="M27.5723 43.1546C27.4757 43.177 27.3813 43.2013 27.289 43.2274C27.1983 43.2531 27.1059 43.2817 27.0119 43.3133L26.9864 43.2494C27.0522 43.2161 27.0973 43.1878 27.1217 43.1645C27.1457 43.1397 27.1582 43.1117 27.1592 43.0804L27.2194 41.5708L27.4104 41.4922L28.3406 42.7606C28.3584 42.7833 28.3814 42.798 28.4094 42.8048C28.4386 42.8096 28.4891 42.8092 28.561 42.8035L28.5729 42.8712C28.4763 42.8937 28.372 42.9208 28.2601 42.9525C28.1482 42.9842 28.0452 43.0158 27.9512 43.0473L27.9258 42.9834C28.0272 42.9318 28.0836 42.8946 28.0951 42.8717C28.102 42.8616 28.1044 42.8528 28.1023 42.8452C28.0997 42.8361 28.0196 42.7118 27.8619 42.4721L27.3491 42.6173L27.3409 43.0559C27.3465 43.0755 27.3661 43.0871 27.3998 43.0907C27.4335 43.0942 27.487 43.0929 27.5605 43.0868L27.5723 43.1546ZM27.3728 41.7577L27.3638 41.7603C27.3634 41.7996 27.3623 41.8473 27.3602 41.9035C27.3592 41.9577 27.358 42.0429 27.3567 42.1593C27.3549 42.2742 27.3531 42.3891 27.3513 42.504L27.796 42.378L27.3728 41.7577Z" fill="white"/>
<path d="M30.8081 41.6337C30.7752 41.552 30.7188 41.4214 30.6388 41.2419C30.4924 40.913 30.3977 40.7117 30.3545 40.638L30.3289 40.5978C30.3092 40.5652 30.2603 40.5577 30.1821 40.5753C30.1629 40.5787 30.1306 40.5853 30.0851 40.5953L30.0638 40.5299C30.1562 40.4939 30.2462 40.4565 30.3338 40.4175C30.4228 40.3778 30.5116 40.3357 30.6002 40.2911L30.6345 40.3507C30.5719 40.3958 30.5317 40.4292 30.5139 40.4509C30.4954 40.4712 30.4904 40.4949 30.4991 40.522C30.5224 40.6131 30.5836 40.77 30.6827 40.9926C30.8343 41.333 30.9564 41.5918 31.0491 41.7691L31.092 41.8481L30.9282 41.9442L29.53 41.1573L29.5192 41.1621C29.5697 41.291 29.6273 41.428 29.6919 41.5731C29.8127 41.8445 29.9009 42.0272 29.9565 42.1212L29.9831 42.1636C30.0028 42.1961 30.052 42.2043 30.1309 42.1881C30.1494 42.1833 30.1814 42.176 30.2269 42.1661L30.2482 42.2314C30.1558 42.2674 30.0601 42.3074 29.961 42.3515C29.8619 42.3957 29.768 42.44 29.6795 42.4846L29.6452 42.425C29.7149 42.3767 29.7623 42.3402 29.7874 42.3152C29.8124 42.2903 29.8209 42.265 29.8129 42.2393C29.7873 42.1509 29.725 41.9954 29.6259 41.7728C29.4648 41.4109 29.3601 41.1873 29.3118 41.1021L29.2884 41.061C29.274 41.0364 29.2531 41.0242 29.2256 41.0244C29.1975 41.0231 29.1458 41.0306 29.0705 41.047L29.0491 40.9816C29.1415 40.9456 29.2495 40.9002 29.373 40.8452L30.7973 41.6385L30.8081 41.6337Z" fill="white"/>
<path d="M12.0148 27.4156C11.5781 26.9062 11.5781 26.3239 12.0148 25.96L17.4733 22.8305H29.3364C28.6815 23.6138 28.827 24.4316 29.6276 24.4316L24.5329 27.4156H12.0148Z" fill="url(#paint2_radial_4_278)"/>
<path d="M23.9507 25.96H12.0148M23.9507 25.96C23.8796 26.818 23.9936 27.1494 24.5329 27.4156M23.9507 25.96L29.3364 22.8305M12.0148 25.96C11.5781 26.3239 11.5781 26.9062 12.0148 27.4156H24.5329M12.0148 25.96L17.4733 22.8305H29.3364M24.5329 27.4156L29.6275 24.4316C28.827 24.4316 28.6815 23.6138 29.3364 22.8305" stroke="#414581" stroke-width="0.14556"/>
<path d="M23.9504 25.9599C23.8793 26.818 23.9933 27.1493 24.5327 27.4155L29.6273 24.4316C28.8267 24.4316 28.6812 23.6137 29.3362 22.8304L23.9504 25.9599Z" fill="white" stroke="#00377A" stroke-width="0.14556"/>
<path d="M25.4061 15.7712L24.6783 17.0813L25.1878 17.5907L25.9883 15.9896L26.7889 16.4263L27.0073 15.9168L26.1339 15.4073L26.5706 14.6795L26.1339 14.4612L25.6244 15.2618L24.8239 14.7523L24.46 15.189L25.4061 15.7712Z" fill="url(#paint3_linear_4_278)"/>
<path d="M28.3173 20.3564L26.7889 21.7392L26.8617 22.5398L27.2984 22.1031L28.8268 20.8658L29.2634 21.0114L29.409 20.5747H29.8457L29.9912 20.2108H30.5735V19.7741L30.9374 19.6286C31.003 19.4094 31.0448 19.2876 31.0102 19.0463C30.9021 18.4558 30.8563 18.1235 30.9374 17.518C31.1819 16.9253 31.4744 16.7719 32.2474 16.7902C32.8891 16.8369 32.9448 17.0951 32.9025 17.6635L33.2664 17.7363L33.048 18.0274L33.2664 18.2458V18.4641L33.703 18.6097C33.4847 19.1919 33.1597 19.3252 32.8297 19.2647C31.738 19.0463 32.8297 18.6824 32.8297 18.0274C31.5287 18.2789 31.2701 18.6186 31.5924 19.5558C31.0102 19.7741 30.7918 20.2836 31.0102 20.9386C31.2712 21.5763 32.3334 21.2789 32.4658 21.157C32.8297 20.7203 32.9752 20.4292 32.1019 20.138C33.4847 20.5019 34.0669 20.2836 34.5764 19.2647C35.365 19.1056 35.7126 18.935 35.8864 18.2458C35.8169 17.8779 35.568 17.9561 35.0131 18.2458L34.9403 18.0274L35.0131 17.7363L34.7947 17.4452V16.9357H34.3581V16.6446L34.0669 16.499C34.0669 16.499 33.2609 15.9878 33.048 15.9168C31.9563 15.5529 31.466 15.6677 30.719 15.9896C29.8032 16.513 29.6253 17.065 29.8457 18.4641V19.0463H29.2634L29.1179 19.5558L28.8268 19.6286L28.6812 19.7741L28.3173 19.9197V20.3564Z" fill="url(#paint4_linear_4_278)"/>
<path d="M25.4061 15.7712L24.6783 17.0813L25.1878 17.5907L25.9883 15.9896L26.7889 16.4263L27.0073 15.9168L26.1339 15.4073L26.5706 14.6795L26.1339 14.4612L25.6244 15.2618L24.8239 14.7523L24.46 15.189L25.4061 15.7712Z" stroke="#FCEE05" stroke-width="0.14556"/>
<path d="M28.3173 20.3564L26.7889 21.7392L26.8617 22.5398L27.2984 22.1031L28.8268 20.8658L29.2634 21.0114L29.409 20.5747H29.8457L29.9912 20.2108H30.5735V19.7741L30.9374 19.6286C31.003 19.4094 31.0448 19.2876 31.0102 19.0463C30.9021 18.4558 30.8563 18.1235 30.9374 17.518C31.1819 16.9253 31.4744 16.7719 32.2474 16.7902C32.8891 16.8369 32.9448 17.0951 32.9025 17.6635L33.2664 17.7363L33.048 18.0274L33.2664 18.2458V18.4641L33.703 18.6097C33.4847 19.1919 33.1597 19.3252 32.8297 19.2647C31.738 19.0463 32.8297 18.6824 32.8297 18.0274C31.5287 18.2789 31.2701 18.6186 31.5924 19.5558C31.0102 19.7741 30.7918 20.2836 31.0102 20.9386C31.2712 21.5763 32.3334 21.2789 32.4658 21.157C32.8297 20.7203 32.9752 20.4292 32.1019 20.138C33.4847 20.5019 34.0669 20.2836 34.5764 19.2647C35.365 19.1056 35.7126 18.935 35.8864 18.2458C35.8169 17.8779 35.568 17.9561 35.0131 18.2458L34.9403 18.0274L35.0131 17.7363L34.7947 17.4452V16.9357H34.3581V16.6446L34.0669 16.499C34.0669 16.499 33.2609 15.9878 33.048 15.9168C31.9563 15.5529 31.466 15.6677 30.719 15.9896C29.8032 16.513 29.6253 17.065 29.8457 18.4641V19.0463H29.2634L29.1179 19.5558L28.8268 19.6286L28.6812 19.7741L28.3173 19.9197V20.3564Z" stroke="#FCEE05" stroke-width="0.14556"/>
<path d="M12.9611 23.1219L14.3439 21.8846L14.5622 23.413C13.8106 23.5818 13.6947 23.8359 13.7616 24.4319C14.2766 25.3571 14.923 25.9587 16.1634 27.052C16.4545 27.4887 16.3817 27.8526 15.945 28.0709C15.1445 28.2892 15.6539 29.0118 16.3089 28.5076C17.2942 28.3403 17.8347 28.2985 18.7835 28.2892C20.2225 28.365 20.863 28.6377 21.7674 29.4537L24.6059 29.3082C25.5756 28.2301 26.2133 27.7205 27.5171 26.9792C27.8082 26.6881 27.7354 26.397 27.3715 26.1058C26.8621 25.4508 26.8621 25.1597 26.7165 23.7041C26.5499 23.2726 26.4274 23.0878 26.1343 22.9035L23.9509 22.6852L24.8242 21.8118H26.2798C26.8084 21.8339 27.0521 21.9227 27.3715 22.2485C27.8136 22.938 27.8457 23.2076 27.6626 23.5585C28.344 24.0727 28.3895 24.633 28.2449 25.8147C28.7808 25.8886 28.9593 26.0782 29.0455 26.6881C27.6626 28.2892 25.8887 28.8715 25.6976 29.1626C25.307 29.7577 25.5071 30.2519 25.8431 31.2732L24.1692 30.6182V30.8365L23.8053 31.4188L23.6597 32.1466C23.1503 31.2732 22.8815 30.452 22.568 30.3271L21.6219 30.8365C19.7618 29.4063 18.7008 28.8982 16.7456 29.017C16.3089 29.5993 14.8533 29.5265 14.7078 28.8715C14.3838 28.6074 14.5146 28.3928 15.1445 27.9253C15.2953 27.3467 15.0808 26.9992 13.98 26.3242C13.1893 25.6426 12.2333 24.5775 12.2333 24.2863C12.2048 23.7396 12.3904 23.4923 12.9611 23.1219Z" fill="url(#paint5_linear_4_278)"/>
<path d="M13.907 24.2863V24.9413C15.9075 25.5611 16.9725 25.4604 18.7833 24.5774V23.9224C20.0205 21.3023 19.7246 19.3426 16.5999 14.7521L16.236 15.3344L15.581 14.6066C12.6697 17.3722 11.5053 22.6124 13.907 24.2863Z" fill="#BA9D1D" stroke="#C7AB02" stroke-width="0.14556"/>
<path d="M21.3306 16.4262L21.4034 16.8628L21.549 17.7362H23.5868L23.7324 16.9356L24.0963 15.6984H23.8052L23.7324 15.0433L23.5868 14.6794L23.0046 13.8789L22.204 13.7333L22.1312 14.0244L22.4951 14.2428L22.7862 14.6794L22.6407 15.1889L22.1312 15.2617L21.8401 14.825L21.549 14.7522V15.5528L21.9857 15.9167L21.7673 15.9895L21.4034 15.6984H21.1123L21.3306 16.4262Z" fill="url(#paint6_linear_4_278)"/>
<path d="M25.9884 18.1729C25.479 16.9356 23.805 16.5717 22.7133 17.5906C21.6216 16.5717 19.9477 16.9356 19.4383 18.1729C18.7105 20.2835 21.5488 23.6314 22.7133 23.7769C23.8778 23.6314 26.7162 20.2835 25.9884 18.1729Z" fill="url(#paint7_radial_4_278)"/>
<path d="M19.0744 14.9704L17.4005 12.9326L17.1094 13.5876L16.4543 13.8787L17.9827 15.8438H18.6377L19.9478 17.3721L20.3845 17.081L19.0744 15.5526V14.9704Z" fill="#6D4007"/>
<path d="M25.4063 23.3401L24.2418 21.8845L23.9507 22.1756L25.188 23.5585L24.8968 23.8496L25.9885 24.2135L25.843 22.9762L25.4063 23.3401Z" fill="#6D4007"/>
<path d="M19.0744 14.9704L17.4005 12.9326L17.1094 13.5876L16.4543 13.8787L17.9827 15.8438H18.6377L19.9478 17.3721L20.3845 17.081L19.0744 15.5526V14.9704Z" stroke="#6D4007" stroke-width="0.14556"/>
<path d="M25.4063 23.3401L24.2418 21.8845L23.9507 22.1756L25.188 23.5585L24.8968 23.8496L25.9885 24.2135L25.843 22.9762L25.4063 23.3401Z" stroke="#6D4007" stroke-width="0.14556"/>
<g filter="url(#filter0_d_4_278)">
<path d="M20.6972 34.4072C20.6972 34.4182 20.6926 34.4283 20.6834 34.4375C20.6761 34.4448 20.6678 34.4485 20.6586 34.4485L20.279 34.4375L19.8773 34.4485C19.8498 34.4485 19.8361 34.4357 19.8361 34.41C19.8361 34.3825 19.848 34.3687 19.8718 34.3687L20.0176 34.3632C20.0543 34.3596 20.0873 34.3485 20.1167 34.3302C20.146 34.3119 20.1607 34.2853 20.1607 34.2504V32.7236C20.1607 32.652 20.1231 32.6163 20.0479 32.6163C20.0442 32.6163 20.0406 32.6163 20.0369 32.6163L19.8553 32.6245C19.8351 32.6245 19.8251 32.6126 19.8251 32.5888C19.8251 32.5649 19.8379 32.5512 19.8636 32.5475L20.3533 32.4815C20.3808 32.4815 20.3945 32.4916 20.3945 32.5117V34.2504C20.3945 34.3183 20.4358 34.3559 20.5183 34.3632L20.6641 34.3687C20.6861 34.3687 20.6972 34.3816 20.6972 34.4072ZM20.9447 33.073C20.9466 32.9134 21.0043 32.7749 21.118 32.6575C21.2336 32.5402 21.384 32.4815 21.5692 32.4815C21.7563 32.4815 21.9049 32.5438 22.0149 32.6685C22.1249 32.7914 22.18 32.9675 22.18 33.1968C22.18 33.4242 22.0993 33.6617 21.9379 33.9093C21.7765 34.1551 21.5601 34.3412 21.2886 34.4678C21.2868 34.4696 21.2785 34.4705 21.2639 34.4705C21.2492 34.4705 21.2336 34.4659 21.2171 34.4568C21.2024 34.4494 21.1951 34.4347 21.1951 34.4127C21.1951 34.3889 21.2088 34.3687 21.2363 34.3522C21.5811 34.145 21.8003 33.8662 21.8939 33.5159C21.7966 33.6039 21.6747 33.6479 21.528 33.6479C21.3409 33.6479 21.1969 33.592 21.096 33.4801C20.9952 33.3682 20.9447 33.2325 20.9447 33.073ZM21.8306 32.7291C21.7646 32.641 21.6756 32.597 21.5637 32.597C21.4518 32.597 21.362 32.641 21.2941 32.7291C21.2281 32.8153 21.1951 32.929 21.1951 33.0702C21.1951 33.2096 21.229 33.3187 21.2969 33.3976C21.3647 33.4746 21.4537 33.5131 21.5637 33.5131C21.6738 33.5131 21.7627 33.4746 21.8306 33.3976C21.8984 33.3187 21.9324 33.2096 21.9324 33.0702C21.9324 32.929 21.8984 32.8153 21.8306 32.7291ZM23.718 33.846C23.718 33.8845 23.7015 33.9038 23.6685 33.9038H23.4649V34.3797C23.4649 34.4182 23.4456 34.4375 23.4071 34.4375H23.2916C23.2531 34.4375 23.2338 34.4182 23.2338 34.3797V33.9038H22.3782C22.3562 33.9038 22.3452 33.8937 22.3452 33.8735V33.8378C22.3452 33.8194 22.3498 33.8038 22.359 33.791L23.2778 32.5227C23.298 32.4952 23.3218 32.4815 23.3494 32.4815H23.4016C23.4255 32.4815 23.442 32.487 23.4511 32.498C23.4603 32.5072 23.4649 32.5237 23.4649 32.5475V33.7442H23.6685C23.7015 33.7442 23.718 33.7589 23.718 33.7882V33.846ZM23.2338 33.7442V32.8006L22.5956 33.7002C22.5882 33.713 22.5846 33.7241 22.5846 33.7332C22.5846 33.7406 22.5919 33.7442 22.6066 33.7442H23.2338ZM24.4912 34.4678C24.3335 34.4678 24.2042 34.4237 24.1033 34.3357C24.0025 34.2477 23.952 34.1422 23.952 34.0193C23.952 33.8946 23.985 33.791 24.0511 33.7085C24.1171 33.6241 24.2106 33.5397 24.3317 33.4554C24.2326 33.382 24.1556 33.3059 24.1006 33.227C24.0456 33.1482 24.018 33.0482 24.018 32.9272C24.018 32.8061 24.0685 32.7016 24.1694 32.6135C24.2702 32.5255 24.3913 32.4815 24.5325 32.4815C24.6737 32.4815 24.7902 32.5209 24.8819 32.5998C24.9736 32.6786 25.0194 32.7731 25.0194 32.8831C25.0194 32.9913 24.9901 33.084 24.9314 33.161C24.8745 33.2362 24.7929 33.3105 24.6866 33.3838C24.8131 33.4682 24.9121 33.5544 24.9837 33.6424C25.0552 33.7305 25.091 33.8442 25.091 33.9836C25.091 34.1211 25.0304 34.2367 24.9094 34.3302C24.7902 34.4219 24.6508 34.4678 24.4912 34.4678ZM24.7251 33.7415C24.6756 33.6975 24.6361 33.6654 24.6068 33.6452C24.5793 33.625 24.5279 33.5902 24.4527 33.5406C24.3408 33.6158 24.2546 33.6892 24.1941 33.7607C24.1354 33.8304 24.1061 33.913 24.1061 34.0083C24.1061 34.1019 24.1437 34.1816 24.2189 34.2477C24.2941 34.3137 24.383 34.3467 24.4857 34.3467C24.5884 34.3467 24.6756 34.3146 24.7471 34.2504C24.8204 34.1862 24.8571 34.1055 24.8571 34.0083C24.8571 33.9093 24.8131 33.8203 24.7251 33.7415ZM24.549 32.6025C24.461 32.6025 24.3876 32.63 24.3289 32.6851C24.2702 32.7382 24.2409 32.8061 24.2409 32.8886C24.2409 32.9693 24.2684 33.0409 24.3234 33.1032C24.3784 33.1637 24.4582 33.2289 24.5628 33.2985C24.66 33.2307 24.7342 33.1656 24.7856 33.1032C24.8388 33.0409 24.8654 32.9693 24.8654 32.8886C24.8654 32.8079 24.8342 32.7401 24.7718 32.6851C24.7113 32.63 24.637 32.6025 24.549 32.6025Z" fill="#C8DDED"/>
</g>
<path d="M9.9619 25.4234L8.90874 25.4383C8.79667 25.4398 8.69501 25.4164 8.60376 25.368C8.51327 25.3202 8.44096 25.2467 8.38685 25.1472C8.33276 25.0485 8.30464 24.9234 8.3025 24.772C8.29946 24.5568 8.35207 24.392 8.46032 24.2776C8.56857 24.1633 8.71324 24.1048 8.89434 24.1023L9.94305 24.0875L9.9479 24.4315L8.95152 24.4455C8.81718 24.4474 8.72331 24.4762 8.66991 24.5319C8.6165 24.5876 8.59056 24.6692 8.59208 24.7768C8.59315 24.8525 8.607 24.9136 8.63364 24.96C8.66028 25.0071 8.70085 25.0414 8.75535 25.0629C8.80984 25.0844 8.87902 25.0946 8.96289 25.0934L9.95705 25.0794L9.9619 25.4234Z" fill="white"/>
<path d="M8.87838 28.3597L8.78683 27.9307L9.84336 26.9812L9.84126 26.9714C9.7918 26.985 9.74189 26.9983 9.69154 27.0113C9.64119 27.0244 9.59084 27.0374 9.54049 27.0504C9.49086 27.0633 9.44088 27.0762 9.39053 27.0892L8.64138 27.2491L8.57702 26.9475L10.169 26.6078L10.2598 27.0335L9.21503 27.9794L9.21665 27.987C9.26571 27.975 9.31432 27.9627 9.36249 27.9502C9.41066 27.9376 9.45883 27.9251 9.50701 27.9125C9.55533 27.9007 9.60366 27.8889 9.65199 27.877L10.4055 27.7162L10.4703 28.02L8.87838 28.3597Z" fill="white"/>
<path d="M9.37686 29.6433L10.8874 29.0367L11.016 29.357L9.50548 29.9635L9.37686 29.6433Z" fill="white"/>
<path d="M10.6487 32.1028L10.4709 31.8069L11.6198 31.1164L11.3921 30.7375L11.6383 30.5895L12.2715 31.6431L12.0253 31.791L11.7976 31.4122L10.6487 32.1028Z" fill="white"/>
<path d="M12.8211 33.3459L13.5502 33.1645L13.7934 33.4458L12.6881 33.6875L12.2088 34.1018L11.9846 33.8423L12.4554 33.4353L12.8629 32.3693L13.1076 32.6524L12.8211 33.3459Z" fill="white"/>
<path d="M16.5554 35.7618C16.4987 35.7279 16.4418 35.7089 16.3845 35.7049C16.3282 35.7007 16.2727 35.7103 16.218 35.7338C16.1639 35.7576 16.1117 35.7943 16.0613 35.8437C16.011 35.8932 15.9639 35.9545 15.9201 36.0278C15.861 36.1265 15.8226 36.2181 15.8048 36.3026C15.7881 36.3869 15.7945 36.463 15.824 36.5308C15.8539 36.598 15.9095 36.656 15.9911 36.7048C16.0478 36.7387 16.1082 36.7662 16.1726 36.7874C16.2375 36.809 16.3105 36.828 16.3914 36.8445L16.2428 37.0929C16.1658 37.0814 16.0941 37.0631 16.0277 37.0381C15.961 37.0137 15.8904 36.9793 15.8158 36.9347C15.6719 36.8485 15.5712 36.748 15.5136 36.6331C15.4571 36.518 15.4386 36.3936 15.458 36.2599C15.4779 36.1256 15.5307 35.9867 15.6164 35.8434C15.6797 35.7377 15.752 35.6495 15.8333 35.5787C15.9145 35.508 16.0021 35.4571 16.096 35.4259C16.1899 35.3947 16.2881 35.386 16.3906 35.3998C16.4931 35.4136 16.5972 35.4521 16.7029 35.5154C16.7724 35.5569 16.8365 35.6074 16.8952 35.6668C16.955 35.7259 17.0075 35.7898 17.0529 35.8585L16.8133 36.042C16.776 35.986 16.7364 35.9328 16.6946 35.8827C16.6528 35.8326 16.6064 35.7923 16.5554 35.7618Z" fill="white"/>
<path d="M18.7472 38.156L18.4247 38.0363L18.6692 37.3776L18.0648 37.1533L17.8203 37.8119L17.4967 37.6918L18.0632 36.1658L18.3868 36.2859L18.1648 36.884L18.7691 37.1083L18.9912 36.5103L19.3137 36.63L18.7472 38.156Z" fill="white"/>
<path d="M21.2103 38.6267L21.1553 38.2254L20.5694 38.1313L20.3914 38.4951L20.0242 38.4361L20.8508 36.9135L21.2674 36.9805L21.5775 38.6857L21.2103 38.6267ZM21.1199 37.9266L21.0634 37.5341C21.0601 37.508 21.0553 37.4745 21.0491 37.4337C21.0437 37.3922 21.0381 37.3503 21.0321 37.308C21.027 37.2651 21.0231 37.228 21.0206 37.1968C21.0085 37.2257 20.9922 37.2614 20.9718 37.304C20.9523 37.3459 20.9335 37.3858 20.9154 37.4235C20.8973 37.4612 20.8844 37.488 20.8765 37.504L20.7011 37.8593L21.1199 37.9266Z" fill="white"/>
<path d="M23.4764 37.0576C23.6241 37.054 23.7462 37.0688 23.8428 37.1021C23.9401 37.1353 24.0131 37.1874 24.0616 37.2582C24.1101 37.329 24.1357 37.4193 24.1384 37.5292C24.1402 37.6034 24.1277 37.6686 24.1009 37.725C24.074 37.7813 24.0381 37.8294 23.993 37.8691C23.948 37.9088 23.899 37.9415 23.8462 37.9673L24.3422 38.6646L23.9593 38.674L23.5555 38.0591L23.3719 38.0636L23.3872 38.688L23.0422 38.6965L23.0023 37.0692L23.4764 37.0576ZM23.4589 37.3409L23.3542 37.3435L23.365 37.7831L23.4763 37.7804C23.5906 37.7776 23.6718 37.7567 23.7198 37.7176C23.7686 37.6778 23.792 37.6208 23.7902 37.5466C23.7883 37.4694 23.7603 37.4152 23.706 37.3838C23.6526 37.3525 23.5702 37.3382 23.4589 37.3409Z" fill="white"/>
<path d="M25.5002 38.4462L25.2026 36.8459L25.5419 36.7828L25.8395 38.3831L25.5002 38.4462Z" fill="white"/>
<path d="M28.1623 37.6833L27.8373 37.7995L27.3862 36.5371L26.97 36.6859L26.8733 36.4154L28.0308 36.0018L28.1275 36.2723L27.7112 36.421L28.1623 37.6833Z" fill="white"/>
<path d="M29.8081 35.7977L29.7736 35.0472L30.0973 34.8641L30.1168 35.9953L30.4288 36.5467L30.1303 36.7156L29.8238 36.1739L28.8588 35.5647L29.1844 35.3805L29.8081 35.7977Z" fill="white"/>
<path d="M33.8784 33.5755L33.6463 33.831L32.6539 32.9298L32.3568 33.257L32.1441 33.0639L32.9705 32.1539L33.1832 32.3471L32.886 32.6743L33.8784 33.5755Z" fill="white"/>
<path d="M33.8594 30.8049C33.9386 30.6802 34.0189 30.587 34.1003 30.5253C34.1821 30.4629 34.2659 30.4313 34.3518 30.4304C34.4376 30.4295 34.5269 30.4585 34.6196 30.5174C34.6823 30.5572 34.7296 30.6039 34.7615 30.6576C34.7933 30.7112 34.8132 30.7678 34.8211 30.8274C34.8291 30.8869 34.829 30.9458 34.8211 31.004L35.6764 30.98L35.4711 31.3033L34.7356 31.2966L34.6371 31.4517L35.1644 31.7865L34.9794 32.0779L33.6052 31.2054L33.8594 30.8049ZM34.085 30.9772L34.0289 31.0656L34.4002 31.3013L34.4599 31.2073C34.5212 31.1108 34.549 31.0317 34.5433 30.9701C34.5373 30.9074 34.503 30.8562 34.4404 30.8164C34.3752 30.775 34.3145 30.7681 34.2583 30.7957C34.2025 30.8227 34.1447 30.8832 34.085 30.9772Z" fill="white"/>
<path d="M35.1354 28.0371L36.1128 28.4296C36.2168 28.4713 36.3016 28.5322 36.3671 28.6121C36.4322 28.691 36.4705 28.7868 36.4821 28.8994C36.4939 29.0113 36.4716 29.1375 36.4152 29.2781C36.335 29.4778 36.2229 29.6096 36.0789 29.6733C35.935 29.7371 35.7789 29.7352 35.6109 29.6678L34.6376 29.2769L34.7658 28.9577L35.6905 29.329C35.8152 29.3791 35.9129 29.3887 35.9836 29.3579C36.0544 29.3271 36.1098 29.2618 36.1499 29.1619C36.1781 29.0917 36.1889 29.03 36.1822 28.9769C36.1758 28.9232 36.1516 28.8759 36.1096 28.835C36.0676 28.7941 36.0077 28.7581 35.9299 28.7268L35.0072 28.3564L35.1354 28.0371Z" fill="white"/>
<path d="M37.1194 26.5614L37.0515 26.8998L35.7371 26.6361L35.6502 27.0695L35.3686 27.013L35.6103 25.8079L35.892 25.8643L35.805 26.2977L37.1194 26.5614Z" fill="white"/>
<path d="M37.3167 23.3644L37.3118 23.7084L36.6093 23.6985L36.6002 24.343L37.3027 24.353L37.2979 24.6981L35.6702 24.6751L35.6751 24.33L36.313 24.339L36.3221 23.6944L35.6842 23.6854L35.6891 23.3414L37.3167 23.3644Z" fill="white"/>
<defs>
<filter id="filter0_d_4_278" x="16.075" y="32.4815" width="12.7661" height="9.48904" filterUnits="userSpaceOnUse" color-interpolation-filters="sRGB">
<feFlood flood-opacity="0" result="BackgroundImageFix"/>
<feColorMatrix in="SourceAlpha" type="matrix" values="0 0 0 0 0 0 0 0 0 0 0 0 0 0 0 0 0 0 127 0" result="hardAlpha"/>
<feOffset dy="3.75"/>
<feGaussianBlur stdDeviation="1.875"/>
<feComposite in2="hardAlpha" operator="out"/>
<feColorMatrix type="matrix" values="0 0 0 0 0 0 0 0 0 0 0 0 0 0 0 0 0 0 0.25 0"/>
<feBlend mode="normal" in2="BackgroundImageFix" result="effect1_dropShadow_4_278"/>
<feBlend mode="normal" in="SourceGraphic" in2="effect1_dropShadow_4_278" result="shape"/>
</filter>
<linearGradient id="paint0_linear_4_278" x1="7.32558" y1="6.25581" x2="35.5814" y2="41.314" gradientUnits="userSpaceOnUse">
<stop stop-color="#2B89E7"/>
<stop offset="1" stop-color="#043360"/>
</linearGradient>
<radialGradient id="paint1_radial_4_278" cx="0" cy="0" r="1" gradientUnits="userSpaceOnUse" gradientTransform="translate(22.4998 22.9999) rotate(90) scale(16.8013)">
<stop stop-color="#DDDAEA"/>
<stop offset="0.703125" stop-color="#5F7AA4"/>
<stop offset="1" stop-color="#073967"/>
</radialGradient>
<radialGradient id="paint2_radial_4_278" cx="0" cy="0" r="1" gradientUnits="userSpaceOnUse" gradientTransform="translate(16.1996 23.6311) rotate(23.6002) scale(8.18056 4.20942)">
<stop stop-color="#5458A1"/>
<stop offset="1" stop-color="#6D72D2"/>
</radialGradient>
<linearGradient id="paint3_linear_4_278" x1="21.1485" y1="15.5529" x2="33.9578" y2="22.5397" gradientUnits="userSpaceOnUse">
<stop offset="0.229167" stop-color="#FCEE05"/>
<stop offset="1" stop-color="#FFFBBE"/>
</linearGradient>
<linearGradient id="paint4_linear_4_278" x1="21.1485" y1="15.5529" x2="33.9578" y2="22.5397" gradientUnits="userSpaceOnUse">
<stop offset="0.229167" stop-color="#FCEE05"/>
<stop offset="1" stop-color="#FFFBBE"/>
</linearGradient>
<linearGradient id="paint5_linear_4_278" x1="23.7325" y1="32.2194" x2="20.2391" y2="21.8846" gradientUnits="userSpaceOnUse">
<stop stop-color="#0492D9"/>
<stop offset="1" stop-color="#0B68A3"/>
</linearGradient>
<linearGradient id="paint6_linear_4_278" x1="22.4685" y1="13.1249" x2="22.4685" y2="17.3437" gradientUnits="userSpaceOnUse">
<stop stop-color="#AB7164"/>
<stop offset="0.953068" stop-color="#F4CC34"/>
</linearGradient>
<radialGradient id="paint7_radial_4_278" cx="0" cy="0" r="1" gradientUnits="userSpaceOnUse" gradientTransform="translate(22.9372 21.0937) rotate(-131.333) scale(4.47144 4.56634)">
<stop stop-color="#CE555A"/>
<stop offset="1" stop-color="#521719"/>
</radialGradient>
</defs>
</svg>
