<svg width="40" height="41" viewBox="0 0 40 41" fill="none" xmlns="http://www.w3.org/2000/svg">
<path d="M8.79823 4.2953V11.5536H1.56097C0.698872 11.5536 0 12.2529 0 13.1155V16.6068C0 17.4694 0.698873 18.1687 1.56098 18.1687H8.79823V38.6572C8.79823 39.5198 9.4971 40.2191 10.3592 40.2191H13.8359C14.698 40.2191 15.3969 39.5198 15.3969 38.6572V18.1687H22.6341C23.4963 18.1687 24.1951 17.4694 24.1951 16.6068V13.1155C24.1951 12.2529 23.4963 11.5536 22.6341 11.5536H15.3969V4.2953C15.3969 3.43269 14.698 2.7334 13.8359 2.7334H10.3592C9.4971 2.7334 8.79823 3.43269 8.79823 4.2953Z" fill="url(#paint0_linear_381_1240)"/>
<path d="M18.0035 11.1549L18.3462 13.0334L19.0315 16.7905H28.6258L28.6282 13.9595C34.0488 18.2821 33.561 5.83232 31.0244 5.36905C32.0547 8.10238 30.5366 10.5429 29.0731 9.7619C28.1319 9.25958 28.2455 6.78722 28.9351 6.15C29.4634 5.6619 29.6198 4.49048 29.0731 2.92857C28.5912 1.55157 27.4624 1.02564 25.8846 0.196704C24.5876 -0.484675 21.7727 0.822884 21.7727 0.822884C21.7727 0.822884 22.9087 1.28257 23.486 1.76215L23.5014 1.77496C24.2073 2.36125 24.7068 2.77613 24.8566 3.64069C25.009 4.51987 24.9115 5.25362 24.1713 5.83232C23.4524 6.39441 22.6389 6.49342 21.7727 6.14541C20.8894 5.79051 20.6829 3.70952 20.4878 3.02619C20.3392 2.50594 19.317 4.39286 19.317 4.39286C19.317 4.39286 18.3036 6.22878 19.0315 7.39777C19.5483 8.22779 21.0874 8.96322 21.0874 8.96322C21.0874 8.96322 20.4826 9.27408 20.0595 9.27631C19.2026 9.28084 18.8323 8.22259 18.0035 8.02395C17.4858 7.89987 16.9756 8.02395 16.9756 8.02395L18.0035 11.1549Z" fill="url(#paint1_radial_381_1240)"/>
<path d="M39.4856 17.7547C37.2588 12.6226 29.9422 11.1132 25.1706 15.3396C20.399 11.1132 13.0827 12.6226 10.856 17.7546C7.67488 26.5094 20.0808 40.3962 25.1706 41C30.2604 40.3962 42.6667 26.5094 39.4856 17.7547Z" fill="url(#paint2_radial_381_1240)"/>
<defs>
<linearGradient id="paint0_linear_381_1240" x1="4.24334" y1="20.5691" x2="24.318" y2="10.1899" gradientUnits="userSpaceOnUse">
<stop stop-color="#6D4007"/>
<stop offset="1" stop-color="#9E5D0A"/>
</linearGradient>
<radialGradient id="paint1_radial_381_1240" cx="0" cy="0" r="1" gradientUnits="userSpaceOnUse" gradientTransform="translate(24.9756 14.2524) rotate(-90) scale(14.2524 7.80488)">
<stop stop-color="#FD9800"/>
<stop offset="1" stop-color="#CE2500"/>
</radialGradient>
<radialGradient id="paint2_radial_381_1240" cx="0" cy="0" r="1" gradientUnits="userSpaceOnUse" gradientTransform="translate(17.4338 19.2753) rotate(61.0418) scale(22.6382 23.7815)">
<stop stop-color="#FF1A1A"/>
<stop offset="1" stop-color="#A20000"/>
</radialGradient>
</defs>
</svg>
